<?xml version="1.0" encoding="UTF-8"?>
<svg xmlns:xodm="http://www.corel.com/coreldraw/odm/2003" xmlns="http://www.w3.org/2000/svg" xmlns:xlink="http://www.w3.org/1999/xlink" version="1.1" id="Layer_1" x="0px" y="0px" viewBox="0 0 2500 2500" style="enable-background:new 0 0 2500 2500;" xml:space="preserve">
<style type="text/css">
	.st0{fill:rgba(133, 133, 173, 1);}
	.st1{fill-rule:evenodd;clip-rule:evenodd;fill:rgba(133, 133, 173, 1);}
</style>
<g id="Layer_x0020_1">
	<g id="_1358352889056">
		<path class="st0" d="M347.7,1753.9c-3.9,11.7,0,19.5,0,19.5s3.9,3.9,15.6,7.8s35.2,7.8,62.5,3.9c54.7-3.9,132.8-19.5,230.5-46.9    c105.5-35.2,230.5-82,367.2-148.4c0,15.6,3.9,35.2,3.9,50.8c-375,175.8-671.9,246.1-722.7,156.3    c-66.4-117.2,300.8-453.1,824.2-757.8c101.6-58.6,203.1-113.3,300.8-160.2c0,15.6,3.9,35.2,3.9,50.8    c-89.8,43-183.6,93.8-281.2,148.4c-257.8,148.4-480.5,308.6-625,441.4c-74.2,66.4-125,125-156.2,175.8    C355.5,1722.7,347.7,1738.3,347.7,1753.9L347.7,1753.9z"></path>
		<path class="st0" d="M1480.5,910.2c0-15.6-3.9-35.2-3.9-50.8c371.1-175.8,668-242.2,718.8-152.3    c66.4,117.2-300.8,453.1-824.2,757.8c-101.6,58.6-203.1,113.3-300.8,160.2c0-15.6-3.9-35.2-3.9-50.8    c89.8-43,183.6-93.8,281.2-148.4c257.8-148.4,480.5-308.6,625-441.4c74.2-66.4,125-125,156.3-175.8c15.6-23.4,23.4-43,27.3-54.7    c3.9-11.7,0-19.5,0-19.5s-3.9-3.9-15.6-7.8c-11.7-3.9-35.2-7.8-62.5-3.9c-54.7,3.9-132.8,19.5-230.5,46.9    C1742.2,796.9,1617.2,843.7,1480.5,910.2L1480.5,910.2z"></path>
		<path class="st0" d="M2136.7,1781.2c11.7-3.9,15.6-7.8,15.6-7.8s3.9-3.9,0-19.5c-3.9-11.7-11.7-31.2-27.3-54.7    c-31.2-46.9-82-105.5-156.2-175.8c-82-74.2-187.5-160.2-312.5-242.2c15.6-11.7,27.3-19.5,43-31.2c335.9,234.4,543,457,492.2,546.9    c-62.5,105.5-472.7-11.7-945.3-269.5c15.6-7.8,35.2-19.5,50.8-27.3c203.1,109.4,394.5,191.4,546.9,238.3    c93.8,31.2,171.9,46.9,230.5,46.9C2105.5,1789.1,2125,1785.2,2136.7,1781.2z"></path>
		<path class="st0" d="M1250,1472.7c-15.6,7.8-35.2,19.5-50.8,27.3c-23.4-11.7-46.9-27.3-70.3-39.1    c-101.6-58.6-199.2-121.1-289.1-179.7c15.6-11.7,27.3-19.5,43-31.2c82,54.7,175.8,113.3,269.5,168    C1183.6,1437.5,1218.8,1457,1250,1472.7L1250,1472.7z"></path>
		<path class="st0" d="M839.8,1218.8c-15.6,11.7-27.3,19.5-43,31.2c-335.9-234.4-543-457-492.2-546.9    c66.4-117.2,546.9,35.2,1066.4,335.9c101.6,58.6,199.2,121.1,289.1,179.7c-15.6,11.7-27.3,19.5-43,31.2    c-82-54.7-175.8-113.3-269.5-168c-257.8-148.4-503.9-261.7-695.3-320.3c-93.8-31.2-171.9-46.9-230.5-46.9c-27.4,0-46.9,0-62.5,3.9    c-11.7,3.9-15.6,7.8-15.6,7.8s-3.9,3.9,0,19.5c3.9,11.7,11.7,31.2,27.3,54.7c31.2,46.9,82,105.5,156.2,175.8    C609.4,1050.8,714.8,1136.7,839.8,1218.8L839.8,1218.8z"></path>
		<path class="st0" d="M1234.4,214.8c7.8-7.8,15.6-7.8,15.6-7.8s7.8,0,15.6,7.8c11.7,7.8,23.4,27.4,35.2,50.8    c27.3,50.8,50.8,125,74.2,222.6c35.2,156.3,58.6,363.3,66.4,593.8c15.6,11.7,35.2,19.5,50.8,31.2c-15.6-539.1-117.2-957-242.2-957    c-101.6,0-191.4,289.1-226.6,699.2c15.6,7.8,31.2,15.6,46.9,23.4c11.7-148.4,31.2-281.2,54.7-390.6    c23.4-97.6,46.9-171.9,74.2-222.6C1210.9,242.2,1222.7,226.6,1234.4,214.8L1234.4,214.8z"></path>
		<path class="st0" d="M1066.4,933.6c-15.6-7.8-31.2-15.6-46.9-23.4c-7.8,105.5-11.7,222.7-11.7,339.8h46.9    C1054.7,1140.6,1058.6,1031.2,1066.4,933.6L1066.4,933.6z"></path>
		<path class="st0" d="M1492.2,1390.6c-3.9,70.3-3.9,136.7-11.7,203.1c-15.6-7.8-31.2-15.6-46.9-23.4c3.9-46.9,3.9-97.7,7.8-148.4    C1457,1410.2,1472.7,1398.4,1492.2,1390.6L1492.2,1390.6z"></path>
		<path class="st0" d="M1492.2,1168c-15.6-11.7-31.2-19.5-50.8-31.2c0,35.2,0,74.2,0,109.4h46.9    C1492.2,1222.7,1492.2,1195.3,1492.2,1168z"></path>
		<path class="st0" d="M1492.2,1332c-15.6,11.7-31.2,19.5-50.8,31.2c0-35.2,0-74.2,0-109.4h46.9    C1492.2,1277.3,1492.2,1304.7,1492.2,1332z"></path>
		<path class="st0" d="M1429.7,1621.1c15.6,7.8,31.2,15.6,46.9,23.4c-35.2,406.2-125,699.2-226.6,699.2    c-132.8,0-242.2-488.3-242.2-1093.8h46.9c0,300.8,27.3,570.3,70.3,761.7c23.4,97.7,46.9,171.9,74.2,222.7    c11.7,23.4,23.4,43,35.2,50.8c11.7,7.8,15.6,7.8,15.6,7.8s7.8,0,15.6-7.8c11.7-7.8,23.4-27.4,35.2-50.8    c27.3-50.8,50.8-125,74.2-222.7C1398.4,1902.3,1418,1769.5,1429.7,1621.1L1429.7,1621.1z"></path>
		<path class="st1" d="M1722.7,796.9c19.5,35.2,66.4,50.8,105.5,27.3c35.2-19.5,50.8-66.4,27.3-105.5    c-19.5-35.2-66.4-50.8-105.5-27.3C1714.8,710.9,1703.1,757.8,1722.7,796.9z"></path>
		<path class="st1" d="M621.1,1066.4c19.5-35.2,7.8-82-27.3-105.5c-35.2-19.5-82-7.8-105.5,27.3c-19.5,35.2-7.8,82,27.3,105.5    C550.8,1117.2,597.7,1101.6,621.1,1066.4L621.1,1066.4z"></path>
		<path class="st1" d="M1093.8,1886.7c43,0,78.1,35.2,78.1,78.1c0,43-35.2,78.1-78.1,78.1s-78.1-35.2-78.1-78.1    C1015.6,1921.9,1050.8,1886.7,1093.8,1886.7z"></path>
		<path class="st1" d="M1250,1121.1c70.3,0,128.9,58.6,128.9,128.9s-58.6,128.9-128.9,128.9s-128.9-58.6-128.9-128.9    C1121.1,1175.8,1175.8,1121.1,1250,1121.1z"></path>
	</g>
</g>
<g id="Layer_x0020_1_00000178894536837984116980000014451276531174111130_">
	<g id="_1358352889056_00000069394048677173129980000013769989280387614621_">
		<path class="st0" d="M359.9,1758.5c-3.9,11.7,0,19.5,0,19.5s3.9,3.9,15.6,7.8s35.2,7.8,62.5,3.9c54.7-3.9,132.8-19.5,230.5-46.9    c105.5-35.2,230.5-82,367.2-148.4c0,15.6,3.9,35.2,3.9,50.8c-375,175.8-671.9,246.1-722.7,156.3    c-66.4-117.2,300.8-453.1,824.2-757.8c101.6-58.6,203.1-113.3,300.8-160.2c0,15.6,3.9,35.2,3.9,50.8    c-89.8,43-183.6,93.8-281.2,148.4c-257.8,148.4-480.5,308.6-625,441.4c-74.2,66.4-125,125-156.3,175.8    C367.8,1727.2,359.9,1742.8,359.9,1758.5L359.9,1758.5z"></path>
		<path class="st0" d="M1492.8,914.7c0-15.6-3.9-35.2-3.9-50.8c371.1-175.8,668-242.2,718.8-152.3    c66.4,117.2-300.8,453.1-824.2,757.8c-101.6,58.6-203.1,113.3-300.8,160.2c0-15.6-3.9-35.2-3.9-50.8    c89.8-43,183.6-93.8,281.2-148.4c257.8-148.4,480.5-308.6,625-441.4c74.2-66.4,125-125,156.2-175.8c15.6-23.4,23.4-43,27.3-54.7    c3.9-11.7,0-19.5,0-19.5s-3.9-3.9-15.6-7.8c-11.7-3.9-35.2-7.8-62.5-3.9c-54.7,3.9-132.8,19.5-230.5,46.9    C1754.5,801.4,1629.5,848.3,1492.8,914.7L1492.8,914.7z"></path>
		<path class="st0" d="M2149,1785.8c11.7-3.9,15.6-7.8,15.6-7.8s3.9-3.9,0-19.5c-3.9-11.7-11.7-31.2-27.3-54.7    c-31.2-46.9-82-105.5-156.2-175.8c-82-74.2-187.5-160.2-312.5-242.2c15.6-11.7,27.3-19.5,43-31.2c335.9,234.4,543,457,492.2,546.9    c-62.5,105.5-472.7-11.7-945.3-269.5c15.6-7.8,35.2-19.5,50.8-27.3c203.1,109.4,394.5,191.4,546.9,238.3    c93.8,31.2,171.9,46.9,230.5,46.9C2117.8,1793.6,2137.3,1789.7,2149,1785.8z"></path>
		<path class="st0" d="M1262.3,1477.2c-15.6,7.8-35.2,19.5-50.8,27.3c-23.4-11.7-46.9-27.3-70.3-39.1    c-101.6-58.6-199.2-121.1-289.1-179.7c15.6-11.7,27.3-19.5,43-31.2c82,54.7,175.8,113.3,269.5,168    C1195.9,1442.1,1231,1461.6,1262.3,1477.2L1262.3,1477.2z"></path>
		<path class="st0" d="M852.1,1223.3c-15.6,11.7-27.3,19.5-43,31.2c-335.9-234.4-543-457-492.2-546.9    c66.4-117.2,546.9,35.2,1066.4,335.9c101.6,58.6,199.2,121.1,289.1,179.7c-15.6,11.7-27.3,19.5-43,31.2    c-82-54.7-175.8-113.3-269.5-168C1102.1,938.1,856,824.9,664.6,766.3c-93.8-31.2-171.9-46.9-230.5-46.9c-27.4,0-46.9,0-62.5,3.9    c-11.7,3.9-15.6,7.8-15.6,7.8s-3.9,3.9,0,19.5c3.9,11.7,11.7,31.2,27.3,54.7c31.2,46.9,82,105.5,156.2,175.8    C621.7,1055.3,727.1,1141.3,852.1,1223.3L852.1,1223.3z"></path>
		<path class="st0" d="M1246.7,219.4c7.8-7.8,15.6-7.8,15.6-7.8s7.8,0,15.6,7.8c11.7,7.8,23.4,27.4,35.2,50.8    c27.3,50.8,50.8,125,74.2,222.6c35.2,156.2,58.6,363.3,66.4,593.8c15.6,11.7,35.2,19.5,50.8,31.2c-15.6-539.1-117.2-957-242.2-957    c-101.6,0-191.4,289.1-226.6,699.2c15.6,7.8,31.2,15.6,46.9,23.4c11.7-148.4,31.2-281.2,54.7-390.6    c23.4-97.6,46.9-171.9,74.2-222.6C1223.2,246.7,1234.9,231.1,1246.7,219.4L1246.7,219.4z"></path>
		<path class="st0" d="M1078.7,938.1c-15.6-7.8-31.2-15.6-46.9-23.4c-7.8,105.5-11.7,222.7-11.7,339.8h46.9    C1067,1145.2,1070.9,1035.8,1078.7,938.1L1078.7,938.1z"></path>
		<path class="st0" d="M1504.5,1395.2c-3.9,70.3-3.9,136.7-11.7,203.1c-15.6-7.8-31.2-15.6-46.9-23.4c3.9-46.9,3.9-97.7,7.8-148.4    C1469.3,1414.7,1484.9,1403,1504.5,1395.2L1504.5,1395.2z"></path>
		<path class="st0" d="M1504.5,1172.5c-15.6-11.7-31.2-19.5-50.8-31.2c0,35.2,0,74.2,0,109.4h46.9    C1504.5,1227.2,1504.5,1199.9,1504.5,1172.5z"></path>
		<path class="st0" d="M1504.5,1336.6c-15.6,11.7-31.2,19.5-50.8,31.2c0-35.2,0-74.2,0-109.4h46.9    C1504.5,1281.9,1504.5,1309.2,1504.5,1336.6z"></path>
		<path class="st0" d="M1442,1625.6c15.6,7.8,31.2,15.6,46.9,23.4c-35.2,406.2-125,699.2-226.6,699.2    c-132.8,0-242.2-488.3-242.2-1093.8h46.9c0,300.8,27.3,570.3,70.3,761.7c23.4,97.7,46.9,171.9,74.2,222.7    c11.7,23.4,23.4,43,35.2,50.8c11.7,7.8,15.6,7.8,15.6,7.8s7.8,0,15.6-7.8c11.7-7.8,23.4-27.4,35.2-50.8    c27.3-50.8,50.8-125,74.2-222.7C1410.7,1906.9,1430.3,1774.1,1442,1625.6L1442,1625.6z"></path>
		<path class="st1" d="M1734.9,801.4c19.5,35.2,66.4,50.8,105.5,27.3c35.2-19.5,50.8-66.4,27.3-105.5    c-19.5-35.2-66.4-50.8-105.5-27.3C1727.1,715.5,1715.4,762.4,1734.9,801.4z"></path>
		<path class="st1" d="M633.4,1071c19.5-35.2,7.8-82-27.3-105.5c-35.2-19.5-82-7.8-105.5,27.3c-19.5,35.2-7.8,82,27.3,105.5    C563.1,1121.7,609.9,1106.1,633.4,1071L633.4,1071z"></path>
		<path class="st1" d="M1106,1891.3c43,0,78.1,35.2,78.1,78.1c0,43-35.2,78.1-78.1,78.1s-78.1-35.2-78.1-78.1    C1027.9,1926.4,1063.1,1891.3,1106,1891.3z"></path>
		<path class="st1" d="M1262.3,1125.6c70.3,0,128.9,58.6,128.9,128.9s-58.6,128.9-128.9,128.9s-128.9-58.6-128.9-128.9    C1133.4,1180.3,1188.1,1125.6,1262.3,1125.6z"></path>
	</g>
</g>
</svg>
